<svg width="1024" height="1024" viewBox="0 0 1024 1024" fill="none" xmlns="http://www.w3.org/2000/svg">
<rect width="1024" height="1024" fill="url(#paint0_linear_0_6)"/>
<g filter="url(#filter0_i_0_6)">
<path d="M558.252 321.665H680.097C685.686 321.665 690.344 319.754 694.07 315.932C697.798 312.11 699.662 307.333 699.662 301.6C699.662 296.058 697.798 291.424 694.07 287.697C690.344 283.971 685.686 282.108 680.097 282.108H558.252C552.476 282.108 547.726 283.971 544 287.697C540.273 291.424 538.41 296.058 538.41 301.6C538.41 307.333 540.273 312.11 544 315.932C547.726 319.754 552.476 321.665 558.252 321.665ZM558.252 451.23H680.097C685.686 451.23 690.344 449.271 694.07 445.354C697.798 441.436 699.662 436.706 699.662 431.165C699.662 425.623 697.798 420.989 694.07 417.262C690.344 413.536 685.686 411.673 680.097 411.673H558.252C552.476 411.673 547.726 413.536 544 417.262C540.273 420.989 538.41 425.623 538.41 431.165C538.41 436.706 540.273 441.436 544 445.354C547.726 449.271 552.476 451.23 558.252 451.23ZM322.666 765.682H344.744L396.165 714.086C403.058 707.398 410.417 704.053 418.242 704.053C426.626 704.053 434.358 707.398 441.437 714.086L471.898 742.464L549.03 672.809C557.786 665.165 566.729 661.343 575.858 661.343C580.516 661.343 585.173 662.25 589.831 664.066C594.489 665.881 598.587 668.891 602.127 673.095L679.259 762.816H701.333V577.068C701.333 544.39 685.312 528.052 653.269 528.052H371.013C355.55 528.052 343.626 532.16 335.242 540.377C326.858 548.595 322.666 560.825 322.666 577.068V765.682ZM444.232 672.522C433.053 672.522 423.505 668.413 415.587 660.196C407.669 651.979 403.71 642.233 403.71 630.958C403.71 619.492 407.669 609.555 415.587 601.147C423.505 592.738 433.053 588.725 444.232 589.108C455.41 589.299 465.005 593.455 473.016 601.577C481.027 609.698 485.033 619.492 485.033 630.958C485.033 642.233 481.027 651.979 473.016 660.196C465.005 668.413 455.41 672.522 444.232 672.522ZM212 795.494C212 832.567 220.989 860.42 238.968 879.052C256.947 897.684 283.821 907 319.592 907H704.412C740.183 907 767.058 897.684 785.037 879.052C803.012 860.42 812 832.567 812 795.494V228.505C812 191.623 803.012 163.818 785.037 145.09C767.058 126.363 740.183 117 704.412 117H319.592C283.821 117 256.947 126.363 238.968 145.09C220.989 163.818 212 191.623 212 228.505V795.494ZM261.464 794.347V229.651C261.464 209.586 266.588 194.25 276.835 183.644C287.082 173.038 302.266 167.735 322.387 167.735H701.613C721.737 167.735 736.921 173.038 747.166 183.644C757.414 194.25 762.539 209.586 762.539 229.651V794.347C762.539 814.413 757.414 829.748 747.166 840.354C736.921 850.96 721.737 856.263 701.613 856.263H322.387C302.266 856.263 287.082 850.96 276.835 840.354C266.588 829.748 261.464 814.413 261.464 794.347Z" fill="white" fill-opacity="0.9"/>
<path d="M361.414 357.617C366.384 375.626 359.737 393.277 346.52 397.085C333.303 400.894 318.594 389.366 313.641 371.348C308.688 353.33 315.317 335.671 328.534 331.88C341.751 328.089 356.452 339.591 361.414 357.617Z" fill="white" fill-opacity="0.9"/>
<path d="M394.703 299.217C399.59 316.859 393.245 334.092 380.539 337.772C367.833 341.452 353.56 330.087 348.691 312.453C343.822 294.82 350.174 277.588 362.88 273.916C375.586 270.244 389.817 281.644 394.703 299.217Z" fill="white" fill-opacity="0.9"/>
<path d="M453.48 289.73C458.45 307.74 452.332 325.271 439.777 328.874C427.222 332.478 413.041 320.787 408.021 302.804C403.001 284.82 409.186 267.289 421.758 263.66C434.329 260.031 448.485 271.73 453.48 289.73Z" fill="white" fill-opacity="0.9"/>
<path d="M510.514 328.618C515.224 345.696 508.368 362.57 495.201 366.353C482.035 370.135 467.544 359.385 462.783 342.349C458.023 325.313 464.904 308.397 478.096 304.606C491.287 300.814 505.787 311.565 510.514 328.618Z" fill="white" fill-opacity="0.9"/>
<path d="M393.748 461.667C393.748 461.667 352.68 474.476 354.918 420.679C360.411 407.957 367.572 396.053 376.206 385.293C376.206 385.293 387.588 366.72 389.616 360.034C389.616 360.034 403.185 324.596 434.698 350.154C434.698 350.154 461.149 376.104 471.29 378.88C471.29 378.88 505.694 400.228 488.614 432.045C488.614 432.045 471.852 451.395 456.766 443.146C456.774 443.137 419.52 425.905 393.748 461.667Z" fill="white" fill-opacity="0.9"/>
</g>
<defs>
<filter id="filter0_i_0_6" x="212" y="117" width="600" height="794" filterUnits="userSpaceOnUse" color-interpolation-filters="sRGB">
<feFlood flood-opacity="0" result="BackgroundImageFix"/>
<feBlend mode="normal" in="SourceGraphic" in2="BackgroundImageFix" result="shape"/>
<feColorMatrix in="SourceAlpha" type="matrix" values="0 0 0 0 0 0 0 0 0 0 0 0 0 0 0 0 0 0 127 0" result="hardAlpha"/>
<feOffset dy="4"/>
<feGaussianBlur stdDeviation="2"/>
<feComposite in2="hardAlpha" operator="arithmetic" k2="-1" k3="1"/>
<feColorMatrix type="matrix" values="0 0 0 0 0.898039 0 0 0 0 0.776471 0 0 0 0 0.607843 0 0 0 0.4 0"/>
<feBlend mode="normal" in2="shape" result="effect1_innerShadow_0_6"/>
</filter>
<linearGradient id="paint0_linear_0_6" x1="512" y1="0" x2="512" y2="1024" gradientUnits="userSpaceOnUse">
<stop stop-color="#E5C69B"/>
<stop offset="1" stop-color="#C09D73"/>
</linearGradient>
</defs>
</svg>
